<svg width="149" height="295" viewBox="0 0 149 295" fill="none" xmlns="http://www.w3.org/2000/svg">
<path fill-rule="evenodd" clip-rule="evenodd" d="M147.674 120.903C146.264 122.313 145.044 124.963 142.624 124.403C140.714 123.883 139.314 122.333 137.754 121.213C138.114 145.653 138.264 170.103 137.614 194.543C136.774 212.533 135.864 230.533 135.014 248.523C134.274 258.083 133.834 267.713 131.944 277.133C131.214 280.043 130.564 283.173 128.554 285.513C126.224 287.853 122.934 288.833 119.874 289.813C107.084 293.403 93.7337 293.943 80.5637 294.793C69.9637 295.343 59.3937 294.273 48.8337 293.523C39.8637 292.393 30.6237 291.433 22.2837 287.693C17.8537 285.813 16.5837 280.793 15.7137 276.533C13.3637 263.973 13.1437 251.163 12.2237 238.453C11.5937 225.813 11.1637 213.163 10.3637 200.533C9.53367 174.073 9.48367 147.593 10.1237 121.123C8.15367 122.473 6.28367 124.863 3.63367 124.383C2.36367 123.663 1.46367 122.473 0.543672 121.383C-0.376328 120.293 0.0437002 119.513 0.543672 118.723C1.04364 117.933 7.26367 115.613 9.96367 113.173C10.3337 101.943 10.0137 90.6828 10.7037 79.4528C11.4137 61.9128 11.9237 44.2527 15.2437 26.9527C16.2137 22.4227 17.5337 17.4628 21.4737 14.5728C30.2837 7.77275 41.6537 6.33275 52.1337 3.76275C51.7937 5.36275 51.2837 6.93275 50.4337 8.33275C43.7332 19.6398 39.1206 32.0106 34.5437 44.2854L34.5037 44.3927C30.3237 56.7728 26.7837 69.3828 24.2037 82.1927C23.7437 84.6527 23.6337 87.1628 23.5037 89.6628C30.5337 87.9727 37.4537 85.7428 44.6437 84.8128C65.1637 81.9328 86.1637 81.8528 106.604 85.3828C112.734 86.3128 118.564 88.4727 124.594 89.8227C123.994 82.2927 122.064 74.9527 120.224 67.6427C115.444 49.0527 108.974 30.8527 100.334 13.6927C98.5937 10.4227 96.4737 7.31275 95.5137 3.69275C103.574 5.83275 112.014 6.87275 119.604 10.5627C124.074 12.6827 128.914 15.4327 130.624 20.4027C133.434 28.0927 134.044 36.3527 135.064 44.4128C137.014 67.4228 137.574 90.5227 137.794 113.603C141.174 115.293 147.644 119.223 147.644 119.223C147.644 119.223 149.084 119.493 147.674 120.903ZM20.7437 101.393C25.3437 93.7427 34.6537 92.2128 42.6937 90.7428C66.1137 86.7327 90.3937 87.0928 113.554 92.5527C118.844 93.6927 124.084 96.5327 126.844 101.353C126.474 108.163 123.234 114.463 121.224 120.923C119.034 126.833 117.014 132.803 114.504 138.583C96.8837 137.503 79.2337 136.113 61.5637 137.023C52.0337 136.913 42.5737 138.613 33.0337 138.393C28.7337 126.143 23.1537 114.203 20.7437 101.393ZM18.1137 119.453C18.2737 116.013 18.5237 112.583 18.9937 109.173C23.3837 118.543 26.2837 128.523 29.6437 138.283C30.9637 141.873 31.4137 145.703 31.3437 149.513C31.5037 164.453 31.2437 179.403 30.2337 194.303C28.6937 201.763 25.8537 208.903 22.9737 215.943C21.8937 217.943 21.3337 220.623 19.0637 221.643C17.8237 215.303 17.5237 208.843 17.1437 202.413C16.3237 174.763 16.7337 147.083 18.1137 119.453ZM116.384 159.483C116.554 152.393 115.624 145.003 118.174 138.213C121.474 128.513 124.264 118.513 128.834 109.333C130.374 124.343 130.314 139.443 130.854 154.513C130.784 175.553 131.704 196.683 129.384 217.633C128.964 218.843 129.464 221.203 127.744 221.463C123.604 214.843 121.414 207.253 118.924 199.913C116.774 193.693 117.144 187.043 116.784 180.563C116.784 173.533 116.144 166.513 116.384 159.483ZM24.4139 230.091C26.1849 222.405 28.0025 214.517 31.9237 207.633C33.0137 206.253 35.0037 206.923 36.5037 206.813C61.4737 208.753 86.5937 208.793 111.564 206.793C113.004 206.903 115.174 206.253 116.014 207.853C118.844 212.613 120.174 218.083 121.754 223.353C122.874 228.193 124.504 233.113 124.064 238.143C122.044 241.343 118.664 243.393 115.594 245.493C103.444 253.313 88.5937 254.903 74.4937 255.433C57.3437 255.123 38.7237 252.553 25.5537 240.523C22.4137 238.163 23.9337 233.863 24.2937 230.613L24.4139 230.091ZM24.6137 259.513C23.6337 253.503 22.5737 247.473 22.5437 241.353C32.7537 249.783 45.3837 254.833 58.4637 256.553C77.8537 259.193 98.6137 257.483 115.964 247.843C119.384 246.063 122.184 243.373 125.374 241.253C125.344 247.083 124.204 252.823 123.294 258.563L123.221 258.953C122.266 264.108 121.295 269.342 118.964 274.083C117.424 277.343 113.624 278.363 110.524 279.573C97.3537 283.893 83.3037 284.293 69.5537 284.163C57.9337 283.993 46.1937 282.743 35.1737 278.873C32.7637 277.833 29.9837 276.713 28.8537 274.143C26.5637 269.563 25.4337 264.533 24.6137 259.513Z" fill="#636363"/>
<path d="M61.0537 0.722579C69.5137 -0.227421 78.0837 -0.247421 86.5537 0.702579C89.7237 1.03258 92.7937 2.01258 95.5137 3.69258C96.4737 7.31258 98.5937 10.4226 100.334 13.6926C108.974 30.8526 115.444 49.0526 120.224 67.6426C122.064 74.9526 123.994 82.2926 124.594 89.8226C118.564 88.4726 112.734 86.3126 106.604 85.3826C86.1637 81.8526 65.1637 81.9326 44.6437 84.8126C37.4537 85.7426 30.5337 87.9726 23.5037 89.6626C23.6337 87.1626 23.7437 84.6526 24.2037 82.1926C26.7837 69.3826 30.3237 56.7726 34.5037 44.3926C39.0937 32.0826 43.7137 19.6726 50.4337 8.33258C51.2837 6.93258 51.7937 5.36258 52.1337 3.76258C54.8337 2.07258 57.8937 1.07258 61.0537 0.722579Z" fill="#7D7D7D"/>
<path d="M22.5437 241.353C32.7537 249.783 45.3837 254.833 58.4637 256.553C77.8537 259.193 98.6137 257.483 115.964 247.843C119.384 246.063 122.184 243.373 125.374 241.253C125.344 247.083 124.204 252.823 123.294 258.563C122.314 263.843 121.354 269.223 118.964 274.083C117.424 277.343 113.624 278.363 110.524 279.573C97.3537 283.893 83.3037 284.293 69.5537 284.163C57.9337 283.993 46.1937 282.743 35.1737 278.873C32.7637 277.833 29.9837 276.713 28.8537 274.143C26.5637 269.563 25.4337 264.533 24.6137 259.513C23.6337 253.503 22.5737 247.473 22.5437 241.353Z" fill="#7D7D7D"/>
<path d="M42.6937 90.7428C66.1137 86.7328 90.3936 87.0928 113.554 92.5528C118.844 93.6928 124.084 96.5328 126.844 101.353C126.474 108.163 123.234 114.463 121.224 120.923C119.034 126.833 117.014 132.803 114.504 138.583C96.8836 137.503 79.2337 136.113 61.5637 137.023C52.0337 136.913 42.5737 138.613 33.0337 138.393C28.7337 126.143 23.1537 114.203 20.7437 101.393C25.3437 93.7428 34.6537 92.2128 42.6937 90.7428Z" fill="white"/>
<path d="M18.9937 109.173C23.3837 118.543 26.2837 128.523 29.6437 138.283C30.9637 141.873 31.4137 145.703 31.3437 149.513C31.5037 164.453 31.2437 179.403 30.2337 194.303C28.6937 201.763 25.8537 208.903 22.9737 215.943C21.8937 217.943 21.3337 220.623 19.0637 221.643C17.8237 215.303 17.5237 208.843 17.1437 202.413C16.3237 174.763 16.7337 147.083 18.1137 119.453C18.2737 116.013 18.5237 112.583 18.9937 109.173Z" fill="white"/>
<path d="M118.174 138.213C121.474 128.513 124.264 118.513 128.834 109.333C130.374 124.343 130.314 139.443 130.854 154.513C130.784 175.553 131.704 196.683 129.384 217.633C128.964 218.843 129.464 221.203 127.744 221.463C123.604 214.843 121.414 207.253 118.924 199.913C116.774 193.693 117.144 187.043 116.784 180.563C116.784 173.533 116.144 166.513 116.384 159.483C116.554 152.393 115.624 145.003 118.174 138.213Z" fill="white"/>
<path d="M31.9236 207.633C33.0136 206.253 35.0036 206.923 36.5036 206.813C61.4736 208.753 86.5936 208.793 111.564 206.793C113.004 206.903 115.174 206.253 116.014 207.853C118.844 212.613 120.174 218.083 121.754 223.353C122.874 228.193 124.504 233.113 124.064 238.143C122.044 241.343 118.664 243.393 115.594 245.493C103.444 253.313 88.5937 254.903 74.4936 255.433C57.3437 255.123 38.7236 252.553 25.5537 240.523C22.4137 238.163 23.9336 233.863 24.2936 230.613C26.1036 222.763 27.9136 214.673 31.9236 207.633Z" fill="white"/>
</svg>
