<svg width="220" height="220" viewBox="0 0 220 220" fill="none" xmlns="http://www.w3.org/2000/svg">
<path opacity="0.4" d="M184.25 63.6165C184.25 68.5665 181.592 73.0579 177.375 75.3495L161.425 83.9662L147.858 91.2083L119.717 106.425C116.692 108.075 113.392 108.9 110 108.9C106.608 108.9 103.308 108.075 100.283 106.425L42.6249 75.3495C38.4083 73.0579 35.7499 68.5665 35.7499 63.6165C35.7499 58.6665 38.4083 54.1746 42.6249 51.8829L60.6833 42.1662L75.075 34.3748L100.283 20.8083C106.333 17.5083 113.667 17.5083 119.717 20.8083L177.375 51.8829C181.592 54.1746 184.25 58.6665 184.25 63.6165Z" fill="#22BB9C"/>
<path opacity="0.4" d="M90.7499 117.242L37.1249 90.3834C32.9999 88.2751 28.2333 88.55 24.2916 90.9334C20.3499 93.3167 18.0583 97.5337 18.0583 102.117V152.808C18.0583 161.608 22.9165 169.492 30.7999 173.433L84.4249 200.2C86.2583 201.117 88.2751 201.575 90.2917 201.575C92.6751 201.575 95.0584 200.934 97.1667 199.559C101.108 197.175 103.4 192.958 103.4 188.375V137.684C103.492 129.067 98.6333 121.183 90.7499 117.242Z" fill="#22BB9C"/>
<path opacity="0.4" d="M201.942 102.209V152.9C201.942 161.608 197.083 169.492 189.2 173.433L135.575 200.292C133.742 201.208 131.725 201.667 129.708 201.667C127.325 201.667 124.942 201.025 122.742 199.65C118.892 197.267 116.508 193.05 116.508 188.467V137.867C116.508 129.067 121.367 121.183 129.25 117.242L148.958 107.433L162.708 100.558L182.875 90.475C187 88.3667 191.767 88.55 195.708 91.025C199.558 93.4083 201.942 97.6253 201.942 102.209Z" fill="#22BB9C"/>
<path d="M161.425 83.9664L147.858 91.2084L60.6833 42.1664L75.075 34.375L159.225 81.8583C160.142 82.4083 160.875 83.1414 161.425 83.9664Z" fill="#22BB9C"/>
<path d="M162.708 100.558V121.367C162.708 125.125 159.592 128.242 155.833 128.242C152.075 128.242 148.958 125.125 148.958 121.367V107.433L162.708 100.558Z" fill="#22BB9C"/>
</svg>
