<svg width="220" height="220" viewBox="0 0 220 220" fill="none" xmlns="http://www.w3.org/2000/svg">
<path opacity="0.4" d="M203.317 125.217C201.942 110.092 197.908 93.9583 168.483 93.9583H51.5167C22.0917 93.9583 18.15 110.092 16.6833 125.217L11.55 181.042C10.9083 188.008 13.2 194.975 17.9667 200.2C22.825 205.517 29.7 208.542 37.0333 208.542H54.2667C69.1167 208.542 71.9583 200.017 73.7917 194.425L75.625 188.925C77.7333 182.6 78.2833 181.042 86.5333 181.042H133.467C141.717 181.042 141.992 181.958 144.375 188.925L146.208 194.425C148.042 200.017 150.883 208.542 165.733 208.542H182.967C190.208 208.542 197.175 205.517 202.033 200.2C206.8 194.975 209.092 188.008 208.45 181.042L203.317 125.217Z" fill="#22BB9C"/>
<path d="M192.5 66.4583H183.333C183.242 66.4583 183.242 66.4583 183.15 66.4583L179.667 49.8666C176.367 33.825 169.492 19.0667 142.175 19.0667H116.875H103.125H77.825C50.5083 19.0667 43.6333 33.825 40.3333 49.8666L36.85 66.4583C36.7583 66.4583 36.7583 66.4583 36.6667 66.4583H27.5C23.7417 66.4583 20.625 69.575 20.625 73.3333C20.625 77.0916 23.7417 80.2083 27.5 80.2083H34.0083L30.1583 98.5416C35.1083 95.7 41.9833 93.9583 51.5167 93.9583H168.483C178.017 93.9583 184.892 95.7 189.842 98.5416L185.992 80.2083H192.5C196.258 80.2083 199.375 77.0916 199.375 73.3333C199.375 69.575 196.258 66.4583 192.5 66.4583Z" fill="#22BB9C"/>
<path d="M82.5 144.375H55C51.2417 144.375 48.125 141.258 48.125 137.5C48.125 133.742 51.2417 130.625 55 130.625H82.5C86.2583 130.625 89.375 133.742 89.375 137.5C89.375 141.258 86.2583 144.375 82.5 144.375Z" fill="#22BB9C"/>
<path d="M165 144.375H137.5C133.742 144.375 130.625 141.258 130.625 137.5C130.625 133.742 133.742 130.625 137.5 130.625H165C168.758 130.625 171.875 133.742 171.875 137.5C171.875 141.258 168.758 144.375 165 144.375Z" fill="#22BB9C"/>
</svg>
