<svg width="220" height="220" viewBox="0 0 220 220" fill="none" xmlns="http://www.w3.org/2000/svg">
<path d="M110 171.875C106.242 171.875 103.125 168.758 103.125 165V155.833C103.125 152.075 106.242 148.958 110 148.958C113.758 148.958 116.875 152.075 116.875 155.833V165C116.875 168.758 113.758 171.875 110 171.875Z" fill="#22BB9C"/>
<path d="M110 208.542C106.242 208.542 103.125 205.425 103.125 201.667V192.5C103.125 188.742 106.242 185.625 110 185.625C113.758 185.625 116.875 188.742 116.875 192.5V201.667C116.875 205.425 113.758 208.542 110 208.542Z" fill="#22BB9C"/>
<path d="M18.3333 208.542C17.7833 208.542 17.2334 208.45 16.6834 208.358C13.0167 207.442 10.725 203.684 11.6417 200.017L20.8084 163.35C21.725 159.684 25.3916 157.392 29.1499 158.309C32.8166 159.225 35.1083 162.983 34.1916 166.65L25.025 203.317C24.2 206.433 21.45 208.542 18.3333 208.542Z" fill="#22BB9C"/>
<path d="M201.667 208.542C198.55 208.542 195.8 206.433 194.975 203.317L185.808 166.65C184.892 162.983 187.092 159.225 190.85 158.308C194.517 157.392 198.275 159.592 199.192 163.35L208.358 200.017C209.275 203.683 207.075 207.441 203.317 208.358C202.767 208.45 202.217 208.542 201.667 208.542Z" fill="#22BB9C"/>
<path opacity="0.4" d="M176.55 87.2668C175.542 76.4501 172.7 64.9919 151.708 64.9919H68.2916C47.2999 64.9919 44.4583 76.5418 43.45 87.2668L39.7832 127.05C39.3249 132 40.9749 136.95 44.3665 140.708C47.8499 144.466 52.8 146.667 57.9333 146.667H70.2166C80.7583 146.667 82.7748 140.617 84.1498 136.584L85.4333 132.641C86.9 128.15 87.2666 127.05 93.2249 127.05H126.683C132.55 127.05 132.733 127.691 134.475 132.641L135.758 136.584C137.133 140.617 139.15 146.667 149.692 146.667H161.975C167.108 146.667 172.058 144.466 175.542 140.708C178.933 137.041 180.583 132 180.125 127.05L176.55 87.2668Z" fill="#22BB9C"/>
<path d="M168.85 45.2833H162.342C162.25 45.2833 162.25 45.2833 162.25 45.2833L159.775 33.4585C157.392 22.0002 152.533 11.4583 133.008 11.4583H114.95H105.142H87.0833C67.5583 11.4583 62.6999 22.0002 60.3166 33.4585L57.8416 45.2833C57.7499 45.2833 57.75 45.2833 57.75 45.2833H51.2416C48.4916 45.2833 46.2916 47.4831 46.2916 50.2331C46.2916 52.9831 48.4916 55.1835 51.2416 55.1835H55.9167L53.1666 68.2918C56.7416 66.2751 61.6 64.9919 68.3833 64.9919H151.8C158.583 64.9919 163.533 66.2751 167.017 68.2918L164.267 55.1835H168.942C171.692 55.1835 173.892 52.9831 173.892 50.2331C173.8 47.4831 171.6 45.2833 168.85 45.2833Z" fill="#22BB9C"/>
<path d="M90.3833 100.925H70.7666C68.0166 100.925 65.8165 98.7247 65.8165 95.9747C65.8165 93.2247 68.0166 91.0249 70.7666 91.0249H90.3833C93.1333 91.0249 95.3332 93.2247 95.3332 95.9747C95.2415 98.7247 93.0416 100.925 90.3833 100.925Z" fill="#22BB9C"/>
<path d="M149.233 100.925H129.617C126.867 100.925 124.667 98.7247 124.667 95.9747C124.667 93.2247 126.867 91.0249 129.617 91.0249H149.233C151.983 91.0249 154.183 93.2247 154.183 95.9747C154.183 98.7247 151.983 100.925 149.233 100.925Z" fill="#22BB9C"/>
</svg>
