<svg width="20" height="20" viewBox="0 0 20 20" fill="none" xmlns="http://www.w3.org/2000/svg">
<path d="M18.3334 9.37496H16.6334C16.3334 6.19996 13.8001 3.65829 10.6251 3.36663V1.66663C10.6251 1.32496 10.3417 1.04163 10.0001 1.04163C9.65841 1.04163 9.37508 1.32496 9.37508 1.66663V3.36663C6.20008 3.66663 3.65841 6.19996 3.36675 9.37496H1.66675C1.32508 9.37496 1.04175 9.65829 1.04175 9.99996C1.04175 10.3416 1.32508 10.625 1.66675 10.625H3.36675C3.66675 13.8 6.20008 16.3416 9.37508 16.6333V18.3333C9.37508 18.675 9.65841 18.9583 10.0001 18.9583C10.3417 18.9583 10.6251 18.675 10.6251 18.3333V16.6333C13.8001 16.3333 16.3417 13.8 16.6334 10.625H18.3334C18.6751 10.625 18.9584 10.3416 18.9584 9.99996C18.9584 9.65829 18.6751 9.37496 18.3334 9.37496ZM10.0001 12.6C8.56675 12.6 7.40008 11.4333 7.40008 9.99996C7.40008 8.56663 8.56675 7.39996 10.0001 7.39996C11.4334 7.39996 12.6001 8.56663 12.6001 9.99996C12.6001 11.4333 11.4334 12.6 10.0001 12.6Z" fill="#22BB9C"/>
</svg>
