<svg width="102" height="90" viewBox="0 0 102 90" fill="none" xmlns="http://www.w3.org/2000/svg">
<path d="M38.0537 0.722579C46.5137 -0.227421 55.0837 -0.247421 63.5537 0.702579C66.7237 1.03258 69.7937 2.01258 72.5137 3.69258C73.4737 7.31258 75.5937 10.4226 77.3337 13.6926C85.9737 30.8526 92.4437 49.0526 97.2237 67.6426C99.0637 74.9526 100.994 82.2926 101.594 89.8226C95.5637 88.4726 89.7337 86.3126 83.6037 85.3826C63.1637 81.8526 42.1637 81.9326 21.6437 84.8126C14.4537 85.7426 7.53366 87.9726 0.503662 89.6626C0.633662 87.1626 0.743663 84.6526 1.20366 82.1926C3.78366 69.3826 7.32366 56.7726 11.5037 44.3926C16.0937 32.0826 20.7137 19.6726 27.4337 8.33258C28.2837 6.93258 28.7937 5.36258 29.1337 3.76258C31.8337 2.07258 34.8937 1.07258 38.0537 0.722579Z" fill="#7D7D7D"/>
</svg>
