<svg width="120" height="120" viewBox="0 0 120 120" fill="none" xmlns="http://www.w3.org/2000/svg">
<path opacity="0.4" d="M108.25 50.15C106.3 47.35 102.85 45.75 98.9 45.75H78.4C77.05 45.75 75.8 45.2 74.95 44.2C74.05 43.2 73.7 41.8 73.9 40.35L76.45 23.95C77.55 19.05 74.3 13.55 69.4 11.9C64.85 10.2 59.5 12.5 57.35 15.75L36.25 47.1L35.65 48.1V92.3L36.4 93.05L52.25 105.3C54.35 107.4 59.1 108.55 62.45 108.55H81.95C88.65 108.55 95.4 103.5 96.9 97.35L109.2 59.9C110.5 56.35 110.15 52.9 108.25 50.15Z" fill="#22BB9C"/>
<path d="M26.05 31.9H20.9C13.15 31.9 10 34.9 10 42.3V92.6C10 100 13.15 103 20.9 103H26.05C33.8 103 36.95 100 36.95 92.6V42.3C36.95 34.9 33.8 31.9 26.05 31.9Z" fill="#22BB9C"/>
</svg>
