<svg width="35" height="35" viewBox="0 0 35 35" fill="none" xmlns="http://www.w3.org/2000/svg">
<path d="M30.0709 12.323C28.5396 5.58546 22.6625 2.55212 17.5 2.55212C17.5 2.55212 17.5 2.55212 17.4854 2.55212C12.3375 2.55212 6.44585 5.57087 4.9146 12.3084C3.20835 19.8334 7.81668 26.2063 11.9875 30.2167C13.5333 31.7042 15.5167 32.448 17.5 32.448C19.4833 32.448 21.4667 31.7042 22.9979 30.2167C27.1688 26.2063 31.7771 19.848 30.0709 12.323ZM17.5 19.6292C14.9625 19.6292 12.9063 17.573 12.9063 15.0355C12.9063 12.498 14.9625 10.4417 17.5 10.4417C20.0375 10.4417 22.0938 12.498 22.0938 15.0355C22.0938 17.573 20.0375 19.6292 17.5 19.6292Z" fill="#22BB9C"/>
</svg>
