<svg width="104" height="44" viewBox="0 0 104 44" fill="none" xmlns="http://www.w3.org/2000/svg">
<path d="M0.543701 0.352676C10.7537 8.78268 23.3837 13.8327 36.4637 15.5527C55.8537 18.1927 76.6137 16.4827 93.9637 6.84268C97.3837 5.06268 100.184 2.37269 103.374 0.252686C103.344 6.08269 102.204 11.8227 101.294 17.5627C100.314 22.8427 99.3537 28.2227 96.9637 33.0827C95.4237 36.3427 91.6237 37.3627 88.5237 38.5727C75.3537 42.8927 61.3037 43.2927 47.5537 43.1627C35.9337 42.9927 24.1937 41.7427 13.1737 37.8727C10.7637 36.8327 7.9837 35.7127 6.8537 33.1427C4.5637 28.5627 3.4337 23.5327 2.6137 18.5127C1.6337 12.5027 0.573701 6.47268 0.543701 0.352676Z" fill="#7D7D7D"/>
</svg>
